# xmcd
#
# Track frame offsets:
#	150
#	12831
#	27223
#	39286
#	52197
#	65322
#	79122
#	94423
#	106729
#	122252
#	134971
#	149094
#	161480
#	174423
#	189246
#	203736
#
# Disc length: 2900 seconds
#
# Revision: 0
# Processed by: cddbd v1.5.2PL0 Copyright (c) Steve Scherf et al.
# Submitted via: audiograbber 1.83.01
#
DISCID=d70b5210
DTITLE=Various Artist - Das waren Schlager 1932
DYEAR=1932
DGENRE=Retro
TTITLE0=Hans Albers - Erfolgssong
TTITLE1=Lillian Harvey and W. Fritsch - Wir zahlen keine Miete mehr
TTITLE2=Fred Bird - Es war einmal ein Musikus
TTITLE3=Marta Eggerth - Ein Lied, ein Kuß, ein Mädel
TTITLE4=Marek Weber - Wenn die kleinen Veilchen blühen
TTITLE5=Hans Albers - Flieger, grüß' mir die Sonne
TTITLE6=Gitta Alpar - Was kann so schön sein wie die Liebe?
TTITLE7=Comedian Harmonists - Es führt kein and'rer Weg zur Seeligkeit
TTITLE8=Jan Kiepura - Heute Nacht oder nie
TTITLE9=Comedien Harmonists - Einmal schafft's jeder
TTITLE10=Lilian Harvey - Irgendwo auf der Welt
TTITLE11=Hans Albers - Komm' auf die Schaukel Luise
TTITLE12=Leo Slezak - Wenn ich vergnügt bin
TTITLE13=Hans Albers - Ganz Dahinten Wo Der Leuchtturm Steht
TTITLE14=Renate Müller - Liebe war es nie 
TTITLE15=Willy Fritsch - Wenn ich sonntags in mein Kino geh
EXTD=
EXTT0=
EXTT1=
EXTT2=
EXTT3=
EXTT4=
EXTT5=
EXTT6=
EXTT7=
EXTT8=
EXTT9=
EXTT10=
EXTT11=
EXTT12=
EXTT13=
EXTT14=
EXTT15=
PLAYORDER=
